<svg viewBox="0 0 24 24" width="24px" height="24px" class="d Vb egaXP UmNoP" aria-hidden="true"><path fill-rule="evenodd" clip-rule="evenodd" d="M14.051 6.549v.003l1.134 1.14 3.241-3.25.003-.002 1.134 1.136-3.243 3.252 1.134 1.14a1 1 0 0 0 .09-.008c.293-.05.573-.324.72-.474l.005-.006 2.596-2.603L22 8.016l-2.597 2.604a3.73 3.73 0 0 1-1.982 1.015 4.3 4.3 0 0 1-3.162-.657l-.023-.016-.026-.018-1.366 1.407 8.509 8.512L20.219 22l-.002-.002-6.654-6.663-2.597 2.76-7.3-7.315C1.967 8.948 1.531 6.274 2.524 4.198c.241-.504.566-.973.978-1.386l8.154 8.416 1.418-1.423-.039-.045c-.858-1.002-1.048-2.368-.62-3.595a4.15 4.15 0 0 1 .983-1.561L16 2l1.135 1.138-2.598 2.602-.047.045c-.16.151-.394.374-.433.678zM3.809 5.523c-.362 1.319-.037 2.905 1.06 4.103L10.93 15.7l1.408-1.496zM2.205 20.697 3.34 21.84l4.543-4.552-1.135-1.143z"></path></svg>
